<svg width="26" height="25" viewBox="0 0 26 25" fill="none" xmlns="http://www.w3.org/2000/svg">
<path d="M25.7928 12.4756C25.7928 13.3545 25.1209 14.043 24.3594 14.043H22.926L22.9573 21.8604C22.9573 21.9971 22.9484 22.124 22.9349 22.2559V23.0469C22.9349 24.126 22.1331 25 21.1431 25H20.4264C20.3771 25 20.3279 24.9561 20.2786 24.9951C20.2159 24.9561 20.1532 25 20.0904 25H17.5595C16.5696 25 15.7678 24.126 15.7678 23.0469V18.75C15.7678 17.8857 15.1272 17.1875 14.3343 17.1875H11.4675C10.6746 17.1875 10.034 17.8857 10.034 18.75V23.0469C10.034 24.126 9.2322 25 8.24223 25H5.73821C5.67102 25 5.60382 24.9951 5.53663 24.9902C5.48288 24.9951 5.42912 25 5.37537 25H4.65865C3.66914 25 2.86686 24.126 2.86686 23.0469V17.5781C2.86686 17.5342 2.86821 17.4854 2.8709 17.4414V14.043H1.43567C0.628022 14.043 0 13.3545 0 12.4756C0 12.0361 0.134563 11.6455 0.448395 11.3037L11.9333 0.391406C12.2469 0.0489258 12.6052 0 12.9188 0C13.2324 0 13.5907 0.0978515 13.864 0.34248L25.3001 11.3037C25.6584 11.6455 25.8421 12.0361 25.7928 12.4756Z" fill="#C4C4C4"/>
</svg>
